Dark.Skies.2013.720p.Read.Info.X264.AC3-TommieCook

Encoder ..........: Tommie Cook                                                  
Video Codec.......: AVI.X.264
Video Bitrate.....: 2500Kbps                            
Audio Codec.......: AC3
Audio Bitrate.....: 448 Kbps/6 Channels                    
Resolution........: 720x400
Runtime...........: 1h 33min                        
Release Date......: N/A
Theatre Date......:  22 February 2013 (USA)
Language..........: English
Subtitles.........:  n/a
IMDB Rating.......:  6.3/10
IMDb URL..........:http://www.imdb.com/title/tt2387433/

==================================================================================

Complete name                            : Dark.Skies.2013.720p.Read.Info.X264.AC3.TommieCook.avi
Format                                   : AVI
Format/Info                              : Audio Video Interleave
File size                                : 1.91 GiB
Duration                                 : 1h 33mn
Overall bit rate                         : 2 936 Kbps
Writing library                          : VirtualDub build 32842/release

==================================================================================

Video

Video
ID                                       : 0
Format                                   : AVC
Format/Info                              : Advanced Video Codec
Format profile                           : High@L4.1
Format settings, CABAC                   : Yes
Format settings, ReFrames                : 4 frames
Codec ID                                 : X264
Codec ID/Info                            : XiWave GNU GPL x264 MPEG-4
Duration                                 : 1h 33mn
Bit rate                                 : 2 500 Kbps
Width                                    : 1 280 pixels
Height                                   : 544 pixels
Display aspect ratio                     : 2.35:1
Frame rate                               : 25.000 fps
Color space                              : YUV
Chroma subsampling                       : 4:2:0
Bit depth                                : 8 bits
Scan type                                : Progressive
Bits/(Pixel*Frame)                       : 0.144
Stream size                              : 1.61 GiB (84%)

==================================================================================

Audio

Audio
ID                                       : 1
Format                                   : AC-3
Format/Info                              : Audio Coding 3
Mode extension                           : CM (complete main)
Format settings, Endianness              : Big
Codec ID                                 : 2000
Duration                                 : 1h 33mn
Bit rate mode                            : Constant
Bit rate                                 : 448 Kbps
Channel(s)                               : 6 channels
Channel positions                        : Front: L C R, Side: L R, LFE
Sampling rate                            : 48.0 KHz
Bit depth                                : 16 bits
Compression mode                         : Lossy
Stream size                              : 298 MiB (15%)
Alignment                                : Aligned on interleaves
Interleave, duration                     : 40 ms (1.00 video frame)
Interleave, preload duration             : 512 ms

==================================================================================

Plot:
As the Barret family's peaceful suburban life is rocked by an escalating series of 
disturbing events, they come to learn that a terrifying and deadly force is after them.

Notes:

Source was nice for 1080 webrip.  
Clean vid up, an ran some filters.
No need to bore u with that stuff.

Audio:
Is cam, but fix it up a bit to sound nice.
Been sitting on audio 4 a minute so glad to release it finally:)
MOVIE IS VERY WATCHABLE.

Notes:
So Enjoy another quality release from TommieCook!


Screens: 
 
http://www.shotpix.com/images/76201472776147575302.png
 
http://www.shotpix.com/images/15797473864231084304.png
 
http://www.shotpix.com/images/01326668494180411513.png
 
http://www.shotpix.com/images/24026165364774562197.png
 
http://www.shotpix.com/images/93748197215797768437.png
 
http://www.shotpix.com/images/09073665472152012371.png
 
http://www.shotpix.com/images/70100183520718729421.png